<svg width="200" height="130" viewBox="0 0 200 130" fill="none" xmlns="http://www.w3.org/2000/svg">
<mask id="mask0_18019_147" style="mask-type:alpha" maskUnits="userSpaceOnUse" x="0" y="0" width="200" height="130">
<rect width="200" height="130" fill="#D9D9D9"/>
</mask>
<g mask="url(#mask0_18019_147)">
<g opacity="0.5">
<path fill-rule="evenodd" clip-rule="evenodd" d="M91.3323 16.2286C89.1896 16.5798 85.4196 17.7813 83.7837 18.6347L82.7275 19.1856L85.3493 19.3373C91.749 19.7078 97.4967 21.5271 102.19 24.6678L103.824 25.762L107.821 25.845C111.263 25.9166 112.094 26.0125 113.821 26.5387C114.923 26.8748 115.863 27.1871 115.908 27.2327C115.954 27.2784 113.896 27.3159 111.335 27.3159C108.774 27.3159 106.597 27.3977 106.496 27.4977C106.396 27.5977 106.793 28.0744 107.379 28.5571C109.422 30.24 112.879 33.8959 114.535 36.1267C117.431 40.0254 119.497 44.0849 120.512 47.8694C120.742 48.7288 121.005 49.5187 121.095 49.6249C121.186 49.7309 121.452 48.8655 121.686 47.7018C122.238 44.9633 122.248 40.5223 121.709 37.6835C119.709 27.1457 111.459 18.7022 100.979 16.4678C98.6112 15.963 93.6973 15.8411 91.3323 16.2286ZM81.7532 20.8968C80.6535 22.1095 78.7372 27.4277 78.2075 30.7372C77.8371 33.0509 77.9074 38.2895 78.3422 40.7778C78.8793 43.8515 80.165 47.502 81.8703 50.7952C83.573 54.0825 84.0335 54.6491 83.7459 53.1022C83.2752 50.5709 83.2165 46.5549 83.6113 43.8738C84.8551 35.4219 89.4278 29.6665 96.7628 27.32C97.4914 27.0868 98.1759 26.8159 98.2838 26.7178C98.5929 26.437 95.4607 24.3339 92.5058 22.8377C89.4372 21.284 86.4397 20.4648 83.8239 20.4648C82.5139 20.4648 82.0587 20.5597 81.7532 20.8968ZM77.9575 22.4821C73.9635 25.9142 70.9176 30.8977 69.5317 36.2676C68.897 38.7275 68.6619 43.5433 69.048 46.1787C70.13 53.564 74.0873 60.0918 80.0137 64.2674C81.5186 65.3278 84.6997 67.1006 85.0974 67.1006C85.1793 67.1006 84.7756 66.5511 84.2002 65.8797C80.5041 61.5654 77.3691 56.2749 75.9497 51.956C72.9086 42.7024 73.9158 32.2261 78.7174 23.1692C79.3656 21.9463 79.8622 20.9456 79.8208 20.9456C79.7796 20.9456 78.9409 21.6372 77.9575 22.4821ZM99.4118 29.5681C97.138 30.2946 94.5536 31.8115 92.8367 33.4274C90.9522 35.2012 89.534 37.7943 89.0374 40.374C88.6127 42.5803 88.8888 46.9412 89.6465 49.9961C90.8296 54.7667 93.8315 61.42 97.0925 66.4997L98.6357 68.9036L99.6864 68.8368C100.264 68.8002 101.496 68.5639 102.423 68.3117C106.74 67.1381 110.498 65.0181 113.902 61.8354L116.062 59.8151L115.913 58.2295C114.97 48.2215 111.666 40.4619 105.064 32.7524C102.847 30.1629 101.679 29.1071 101.061 29.1318C100.883 29.1388 100.141 29.3352 99.4118 29.5681ZM18.7236 95.031C14.0208 101.529 9.00914 108.45 7.58661 110.411L5 113.977H6.66965H8.33907L12.7485 107.847L17.158 101.717H22.1518L27.1456 101.717L27.2099 107.787L27.2742 113.857L28.7812 113.928L30.2886 114L30.2264 98.6635L30.1645 83.3271L28.7193 83.2715L27.2742 83.2162L18.7236 95.031ZM155.533 95.8416C155.533 103.932 155.449 108.425 155.3 108.332C155.171 108.253 150.341 102.622 144.565 95.8178L134.063 83.4472H132.755H131.447V98.5919V113.737H133.01H134.574L134.636 101.198L134.699 88.6606L138.466 93.0852C140.537 95.519 145.338 101.161 149.132 105.623L156.032 113.737H157.385H158.738L158.582 111.032C158.496 109.545 158.425 102.676 158.425 95.7673L158.423 83.2069H156.978H155.533V95.8416ZM162.759 98.4717V113.737H164.325H165.89V107.727V101.717H170.901H175.911L180.234 107.712L184.557 113.708L186.203 113.722C187.108 113.73 187.813 113.641 187.768 113.524C187.724 113.407 182.756 106.542 176.729 98.2688L165.77 83.2266L164.264 83.2167L162.759 83.2069V98.4717ZM34.3796 98.7121V113.977L43.9538 113.968L53.5281 113.958L54.3711 112.831C54.8348 112.211 55.2503 111.621 55.2943 111.518C55.3387 111.416 51.3553 111.333 46.4427 111.333H37.5108V97.3899V83.4472H35.9452H34.3796V98.7121ZM49.2439 84.643C48.7521 85.3007 48.3496 85.8956 48.3496 85.9651C48.3496 86.0346 51.0051 86.0915 54.2507 86.0915H60.1518V100.046V114L61.6572 113.928L63.1626 113.857L63.0648 99.9741L62.9672 86.0915H68.1318H73.2963L74.1909 84.8958C74.6827 84.2381 75.0852 83.6432 75.0852 83.5737C75.0852 83.5042 69.4722 83.4472 62.6117 83.4472H50.1385L49.2439 84.643ZM78.2672 93.123C78.301 98.4445 78.3614 105.26 78.4017 108.268L78.4749 113.737H88.4388H98.4026L99.2502 112.595L100.098 111.453L90.7227 111.39L81.3476 111.327V105.801V100.275H89.4856H97.6234L98.5179 99.0789C99.0098 98.4212 99.4123 97.8262 99.4123 97.7568C99.4123 97.6873 95.3477 97.6303 90.3799 97.6303H81.3476V91.8609V86.0915H89.6061H97.8642L98.7588 84.8958C99.2506 84.2381 99.6531 83.6432 99.6531 83.5737C99.6531 83.5042 94.8277 83.4472 88.9297 83.4472H78.2063L78.2672 93.123ZM104.229 98.5775V113.737H105.795H107.361V106.985V100.233L111.275 100.316C115.858 100.413 116.184 100.527 117.851 102.626C118.452 103.382 120.321 106.191 122.004 108.868L125.064 113.736L126.838 113.736L128.612 113.737L128.257 113.196C128.062 112.898 126.357 110.245 124.469 107.3C122.266 103.865 120.564 101.486 119.721 100.665L118.407 99.384L119.647 99.2373C122.398 98.9123 124.79 97.1671 126.08 94.5437C126.65 93.3848 126.748 92.8946 126.736 91.2366C126.725 89.6188 126.611 89.0625 126.06 87.9399C125.25 86.2863 123.663 84.8478 121.848 84.1199C120.544 83.597 120.152 83.5713 112.359 83.4963L104.229 83.4182V98.5775ZM120.976 86.8127C122.157 87.4043 122.853 87.9399 123.322 88.6171C124.133 89.7878 124.412 91.6357 123.978 92.9494C123.552 94.2372 121.963 95.8603 120.256 96.7512L118.802 97.5101L113.081 97.5859L107.361 97.6618V91.735V85.8081L113.329 85.8896L119.296 85.9714L120.976 86.8127ZM169.864 93.342C171.984 96.2678 173.754 98.7541 173.798 98.8671C173.843 98.9801 172.081 99.0727 169.884 99.0727H165.89L165.889 96.2481C165.888 94.6947 165.818 92.2066 165.732 90.7191C165.642 89.1546 165.667 88.0164 165.793 88.0185C165.913 88.0207 167.745 90.4162 169.864 93.342ZM27.1537 93.6639V99.0727H23.1795C20.9937 99.0727 19.2053 99.0092 19.2053 98.9316C19.2053 98.7505 26.9213 88.2551 27.0543 88.2551C27.1089 88.2551 27.1537 90.689 27.1537 93.6639ZM190.543 108.671C189.672 109.201 189.139 110.503 189.367 111.54C189.45 111.918 189.845 112.539 190.245 112.921C190.848 113.499 191.176 113.616 192.178 113.616C193.265 113.616 193.468 113.526 194.21 112.718C195.412 111.409 195.222 109.592 193.778 108.583C193.044 108.07 191.46 108.113 190.543 108.671ZM193.384 108.948C194.145 109.354 194.576 110.625 194.297 111.636C193.849 113.256 192.054 113.756 190.717 112.633C190.094 112.11 189.976 111.841 189.976 110.94C189.976 110.123 190.117 109.728 190.568 109.278C191.212 108.635 192.513 108.483 193.384 108.948ZM191.181 110.958C191.181 111.849 191.285 112.535 191.421 112.535C191.554 112.535 191.662 112.21 191.662 111.813C191.662 111.417 191.765 111.092 191.889 111.092C192.014 111.092 192.309 111.417 192.544 111.813C192.778 112.21 193.055 112.535 193.16 112.535C193.447 112.535 193.386 112.215 192.99 111.651C192.672 111.198 192.674 111.125 193.007 110.998C193.249 110.905 193.354 110.622 193.304 110.192C193.236 109.599 193.121 109.522 192.204 109.456L191.181 109.382V110.958ZM192.789 110.035C192.939 110.424 192.515 110.841 191.963 110.848C191.798 110.85 191.662 110.581 191.662 110.251C191.662 109.807 191.79 109.65 192.152 109.65C192.421 109.65 192.707 109.823 192.789 110.035Z" fill="white"/>
</g>
</g>
</svg>
