<svg width="200" height="130" viewBox="0 0 200 130" fill="none" xmlns="http://www.w3.org/2000/svg">
<mask id="mask0_18019_148" style="mask-type:alpha" maskUnits="userSpaceOnUse" x="0" y="0" width="200" height="130">
<rect width="200" height="130" fill="#D9D9D9"/>
</mask>
<g mask="url(#mask0_18019_148)">
<g opacity="0.5">
<path fill-rule="evenodd" clip-rule="evenodd" d="M99.2971 11.1294C99.2971 11.2009 99.3645 11.3197 99.4469 11.3935C99.5778 11.5107 99.76 11.5338 100.89 11.5759C101.601 11.6025 102.359 11.6557 102.575 11.6941C102.791 11.7325 103.167 11.7663 103.412 11.7691L103.858 11.7742V11.4318V11.0895L103.484 11.045C103.278 11.0206 102.252 11.0003 101.203 11C99.3978 10.9994 99.2971 11.0062 99.2971 11.1294ZM93.1124 11.2486C93.0618 11.3052 92.9598 11.3516 92.8856 11.3516C92.7036 11.3516 92.6394 11.5873 92.7566 11.8259C92.8344 11.9845 92.8916 12.0164 93.0639 11.9974C93.1802 11.9846 93.5802 11.9588 93.9525 11.94C94.3248 11.9211 94.66 11.8761 94.6972 11.84C94.7344 11.8038 95.0127 11.7742 95.3156 11.7742C95.9365 11.7742 96.0903 11.6893 96.0903 11.3466V11.1403L94.6473 11.143C93.4732 11.1451 93.1871 11.1649 93.1124 11.2486ZM90.8883 11.5843C90.8883 11.6348 90.994 11.7775 91.1233 11.9013C91.3016 12.0721 91.4219 12.1264 91.6221 12.1264H91.8859V11.8094V11.4925H91.3871C91.0246 11.4925 90.8883 11.5175 90.8883 11.5843ZM86.9764 12.373C86.3246 12.5173 85.7076 12.7282 84.6799 13.1576C83.8517 13.5037 83.0248 13.7355 81.8381 13.954C81.5834 14.001 81.1665 14.1451 80.9117 14.2744C80.657 14.4037 80.2401 14.5611 79.9854 14.6241C79.7306 14.6872 79.3137 14.8484 79.059 14.9822C78.8042 15.1161 78.0506 15.4991 77.3843 15.8333C74.964 17.0473 72.9291 18.2499 71.0163 19.5968C70.1702 20.1925 69.8696 20.3676 69.693 20.3676C69.2692 20.3676 67.7411 21.4685 66.2676 22.8353C65.7973 23.2716 65.0598 23.913 64.6286 24.2608C64.1906 24.6141 63.7877 25.0004 63.7154 25.1365C63.6168 25.3221 63.4707 25.4329 63.0998 25.6032C62.6421 25.8134 62.5977 25.8551 62.3463 26.3109C62.1993 26.5773 61.9938 26.8437 61.8894 26.9028C61.7793 26.9653 61.6441 27.1465 61.5678 27.3342C61.4899 27.5253 61.2141 27.8923 60.8944 28.2301C60.5966 28.5449 60.1766 29.0803 59.961 29.4201C59.5176 30.1189 59.1213 30.4551 58.5766 30.5946L58.2255 30.6845L57.7394 31.6717C57.4282 32.3036 57.0839 32.8745 56.7827 33.2577C56.349 33.8095 56.0966 34.2058 55.2568 35.6526C54.543 36.8825 53.2157 38.3475 52.1937 39.0335C51.8861 39.24 51.718 39.4143 51.5965 39.6527C51.365 40.1069 51.0872 40.8891 50.9869 41.3692C50.9042 41.7643 50.8986 41.7709 50.3321 42.1385C49.884 42.4293 49.725 42.5789 49.5953 42.8319C49.2093 43.5848 48.5279 45.3752 48.134 46.6713L47.8572 47.5821L48.137 48.086C48.2908 48.3631 48.4168 48.6377 48.4168 48.6961C48.4168 48.8623 47.7497 49.7595 47.4686 49.9714C47.2598 50.1288 47.2011 50.2332 47.1326 50.5675C47.087 50.7904 46.9101 51.5909 46.7396 52.3463C46.3434 54.1018 45.9903 55.9277 45.6772 57.8405C44.8919 62.6384 44.829 64.3829 45.2859 68.6879C46.6866 81.883 50.6824 92.0205 57.6681 100.103C59.6473 102.393 64.2031 106.669 67.18 109.031C68.8779 110.378 70.8479 111.69 72.804 112.776C73.2851 113.043 73.8347 113.359 74.0253 113.479C74.3041 113.655 74.4479 113.698 74.7613 113.698C75.1212 113.698 75.1722 113.676 75.433 113.416C75.5994 113.25 75.7825 113.134 75.879 113.134C76.1256 113.134 78.0798 113.957 78.2131 114.116C78.277 114.193 78.3523 114.439 78.3804 114.663C78.4949 115.576 78.7598 115.828 80.0383 116.238C80.7169 116.456 81.106 116.539 81.5731 116.566C82.0771 116.596 82.2121 116.627 82.2671 116.729C82.4011 116.976 82.8867 117.08 84.2254 117.145C85.2516 117.195 85.7004 117.252 86.4701 117.428C87.7523 117.723 88.1673 117.824 88.9286 118.027C89.3782 118.147 89.7644 118.199 90.2204 118.202C90.6327 118.204 90.9656 118.245 91.1296 118.312C91.2718 118.371 91.7808 118.517 92.2606 118.637C93.1669 118.863 94.6189 119.005 95.9834 119C96.729 118.997 97.3189 118.822 97.3623 118.591C97.4383 118.186 97.6543 118.187 98.0537 118.593C98.3542 118.899 98.3805 118.91 98.7893 118.91C99.1716 118.91 99.2305 118.889 99.3909 118.701C99.4888 118.586 99.5911 118.361 99.6184 118.201L99.6681 117.911L99.9993 117.955C100.915 118.078 101.148 118.08 101.193 117.965C101.231 117.867 101.448 117.853 102.924 117.853H104.612L104.93 118.176L105.247 118.498L105.782 118.452C106.371 118.4 107.08 118.392 107.752 118.428C108.093 118.447 108.22 118.425 108.327 118.329C108.439 118.229 108.599 118.206 109.178 118.206C109.845 118.206 109.901 118.194 110.057 118.029C110.208 117.871 110.281 117.853 110.771 117.853C111.357 117.853 112.222 117.667 112.671 117.445C112.821 117.371 113.164 117.29 113.432 117.266C114.023 117.214 114.325 117.056 114.499 116.707C114.629 116.446 114.633 116.445 115.069 116.445C115.424 116.445 115.646 116.388 116.222 116.151C116.613 115.989 117.039 115.767 117.167 115.659C117.506 115.37 117.734 115.27 118.495 115.075C119.169 114.901 119.473 114.78 119.82 114.543C119.918 114.477 120.143 114.4 120.319 114.373C120.495 114.347 120.8 114.235 120.996 114.127C121.506 113.843 122.399 113.465 123.094 113.237C123.424 113.129 123.885 112.915 124.119 112.761C124.554 112.475 125.205 112.163 125.682 112.011C125.829 111.964 125.982 111.865 126.023 111.791C126.106 111.636 126.45 111.444 126.643 111.444C126.715 111.444 126.931 111.286 127.123 111.093C127.394 110.821 127.576 110.71 127.939 110.594C128.714 110.347 129.132 110.122 129.281 109.87C129.457 109.576 129.615 109.458 130.866 108.681C131.434 108.328 132.064 107.919 132.266 107.773C132.467 107.626 132.716 107.485 132.818 107.459C132.92 107.434 133.003 107.39 133.003 107.362C133.003 107.234 133.549 106.791 133.814 106.704C134.172 106.587 134.525 106.157 134.91 105.37C135.139 104.903 135.215 104.81 135.446 104.718C135.593 104.659 135.759 104.611 135.813 104.611C135.868 104.611 136.066 104.397 136.253 104.136C136.651 103.58 136.666 103.567 136.998 103.512C137.21 103.477 137.279 103.417 137.425 103.143C137.825 102.388 138.981 101.494 139.903 101.224C140.172 101.146 140.278 101.046 140.74 100.44C141.309 99.6935 141.359 99.5345 141.167 99.0811C141.068 98.8467 141.071 98.8342 141.256 98.7051C141.539 98.5078 142.12 98.2291 142.453 98.1307C142.638 98.0761 142.787 97.9739 142.86 97.8527C142.923 97.7473 143.12 97.5217 143.298 97.3511C143.598 97.0635 143.621 97.0153 143.621 96.6837C143.621 96.3699 143.671 96.2484 144.031 95.6861C144.428 95.0659 144.451 95.0443 144.759 94.997C144.993 94.9608 145.147 94.8782 145.347 94.6811L145.617 94.4142V93.7345C145.617 93.3205 145.654 92.9661 145.713 92.8281C145.9 92.3899 146.375 91.8846 146.787 91.6853C147.004 91.5803 147.37 91.3156 147.6 91.097C147.944 90.7697 148.058 90.5978 148.246 90.1227L148.474 89.5456L148.318 89.2422C148.232 89.0753 148.082 88.8352 147.984 88.7088L147.807 88.4789L147.968 88.0396C148.198 87.4125 148.507 86.8224 148.871 86.3149L149.187 85.8746H149.815C150.34 85.8746 150.474 85.851 150.629 85.7306C150.842 85.5642 150.96 85.2087 150.961 84.7278C150.961 84.5425 151.009 84.2771 151.068 84.1381C151.128 83.996 151.175 83.6717 151.175 83.3979C151.175 82.8003 151.345 82.4299 151.745 82.1564C151.899 82.0514 152.026 81.92 152.027 81.8645C152.033 81.6679 152.548 79.5582 152.794 78.7252C152.932 78.2603 153.07 77.7056 153.103 77.4926C153.135 77.2795 153.258 76.8353 153.376 76.5055C153.682 75.6536 153.814 74.822 153.87 73.4072C153.914 72.3105 153.936 72.1512 154.07 71.9632C154.675 71.1163 154.833 70.4084 154.77 68.8332C154.733 67.9074 154.744 67.6011 154.826 67.3495C154.902 67.1178 154.925 66.7485 154.911 65.976C154.901 65.3949 154.927 64.6342 154.968 64.2855C155.045 63.6266 154.984 61.9386 154.778 59.0027C154.674 57.5231 154.626 57.2312 154.344 56.3434C154.248 56.043 154.155 55.5834 154.136 55.3221C154.096 54.7648 153.611 52.4375 153.352 51.562C153.164 50.9278 152.601 49.5418 152.42 49.2689C152.362 49.1821 152.315 48.9812 152.315 48.8223C152.315 48.5141 152.236 48.314 152.022 48.0807C151.948 48.0009 151.794 47.6047 151.679 47.2002C151.563 46.7957 151.358 46.1929 151.222 45.8605C150.741 44.6854 149.04 41.4576 147.718 39.2097C146.654 37.4013 145.833 35.9357 145.351 34.9834C144.76 33.8169 144.422 33.254 143.997 32.7275C143.81 32.4961 143.516 32.0374 143.344 31.7081C142.612 30.3052 141.824 29.2536 141.223 28.8785C140.676 28.5371 140.369 28.1939 140.017 27.5328C139.712 26.9585 139.259 26.4912 138.769 26.2461C138.582 26.1524 138.384 26.0117 138.329 25.9335C138.273 25.8554 138.022 25.6604 137.771 25.5002C137.52 25.34 136.742 24.7657 136.043 24.2238C134.802 23.2629 131.598 21.0886 130.917 20.746C130.73 20.6518 130.109 20.4012 129.538 20.1893L128.5 19.8041H126.535H124.571L123.755 20.2313C122.248 21.0204 121.684 21.4056 120.88 22.195C119.711 23.343 118.326 25.2581 118.286 25.7812C118.275 25.9338 118.226 26.1311 118.178 26.2196C118.068 26.4238 118.045 26.67 117.997 28.2C117.969 29.0994 117.982 29.4905 118.044 29.6042C118.091 29.691 118.142 30.1201 118.157 30.5577C118.188 31.4679 118.357 32.0389 118.975 33.3281C119.618 34.6699 120.15 35.3829 120.73 35.6791C120.866 35.7491 120.962 35.8745 121.017 36.0549C121.119 36.3904 121.494 36.7598 121.86 36.8837C122.107 36.9674 122.154 37.0239 122.307 37.4163C122.413 37.6917 122.582 37.9564 122.759 38.1262C123.097 38.4507 123.96 38.8927 124.255 38.8927C124.371 38.8927 124.776 39.0154 125.154 39.1655C125.532 39.3154 126.082 39.4971 126.376 39.5693C126.761 39.6638 127 39.7726 127.231 39.9582C127.599 40.2535 128.02 40.4738 128.352 40.5446C128.6 40.5975 128.942 40.9414 128.942 41.1383C128.942 41.2072 129.166 41.4257 129.458 41.6423C129.742 41.8526 131.081 43.1067 132.433 44.4293C134.149 46.1073 134.967 46.8605 135.142 46.9216C135.322 46.9846 135.452 47.1082 135.605 47.3606C135.833 47.7369 136.612 48.5027 136.839 48.574C136.932 48.6032 136.991 48.707 137.022 48.8961C137.103 49.4003 137.346 49.9208 137.746 50.4491C138.212 51.0653 138.717 51.9042 138.887 52.3463C138.955 52.5207 139.121 52.7597 139.258 52.8776C139.459 53.051 139.532 53.192 139.641 53.6158C139.715 53.9038 139.871 54.3419 139.988 54.5892C140.136 54.9022 140.201 55.1487 140.202 55.4006C140.204 55.8526 140.388 56.2566 140.73 56.5607C140.986 56.7887 140.994 56.8088 140.986 57.2651C140.976 57.8922 141.025 58.2866 141.137 58.486C141.217 58.6271 141.268 58.9812 141.366 60.0592C141.377 60.1755 141.448 60.3973 141.523 60.5523C141.639 60.7893 141.658 60.9642 141.644 61.6534C141.631 62.2313 141.656 62.5426 141.726 62.71C141.807 62.9011 141.821 63.3444 141.797 64.9899C141.779 66.175 141.735 67.1299 141.69 67.2644C141.648 67.3919 141.633 67.5476 141.657 67.6104C141.682 67.6732 141.67 67.9651 141.631 68.259C141.592 68.553 141.509 69.2531 141.447 69.8149C141.164 72.3739 140.22 76.0411 139.152 78.7252C137.886 81.9087 135.145 86.7025 132.827 89.7872C130.359 93.0706 127.086 96.0803 122.706 99.0935C118.13 102.242 113.159 104.637 108.775 105.806C105.054 106.798 100.403 107.241 96.1259 107.011C91.595 106.766 88.8777 106.315 86.568 105.422C86.0475 105.221 85.6331 105.104 85.4397 105.104C85.2485 105.104 85.0173 105.04 84.8223 104.932C84.6507 104.838 84.1897 104.678 83.7978 104.577C81.851 104.075 80.1277 103.35 78.2826 102.259C77.8669 102.013 77.3634 101.759 77.1636 101.695C76.9365 101.622 76.7676 101.517 76.7127 101.416C76.6035 101.214 76.2777 101.019 76.0509 101.019C75.7758 101.019 72.9578 98.9697 70.864 97.2472C67.7332 94.6715 65.6432 92.3605 63.5073 89.1125C61.7447 86.4321 60.4651 83.9437 59.0463 80.4367C57.7623 77.2634 57.0408 74.5345 56.5451 70.9771C56.1538 68.1689 56.1596 67.3422 56.6136 61.2567C56.8003 58.7549 57.0955 57.1404 57.8563 54.4594C59.4152 48.9667 63.1291 41.9493 66.615 37.9102C68.7496 35.4368 71.0243 33.5907 74.5935 31.435C76.4697 30.3018 78.1101 29.0967 79.6131 27.7473C80.0994 27.3107 80.5685 26.8963 80.6557 26.8263C80.9355 26.6014 86.105 24.8564 89.7481 23.757C91.8539 23.1215 93.7128 22.7312 95.5202 22.545C95.971 22.4986 96.3702 22.4334 96.4074 22.4002C96.5145 22.3048 97.9029 22.331 98.7626 22.4447C99.1937 22.5017 99.8832 22.5504 100.295 22.5529C100.706 22.5553 101.187 22.5875 101.364 22.6242C101.54 22.6611 101.939 22.708 102.249 22.7288C102.56 22.7494 102.862 22.805 102.919 22.8524C103.021 22.9354 103.213 22.9377 105.436 22.8818C105.852 22.8714 106.012 22.8953 106.113 22.9825C106.186 23.0454 106.366 23.1351 106.513 23.1819C106.66 23.2286 106.814 23.3277 106.854 23.4021C106.919 23.5221 107.01 23.5373 107.667 23.5373C108.074 23.5373 108.566 23.5011 108.76 23.4569C109.19 23.3587 109.335 23.3918 109.87 23.7106C110.248 23.9357 110.339 23.9599 110.81 23.9599C111.097 23.9599 111.352 23.9282 111.376 23.8895C111.449 23.7731 111.809 23.81 111.934 23.9469C111.998 24.0172 112.086 24.1678 112.128 24.2815C112.175 24.4066 112.347 24.5785 112.565 24.7171C112.854 24.9015 112.997 24.9461 113.299 24.9461C113.685 24.9461 113.828 24.8622 113.864 24.615C113.874 24.5451 114.055 24.3925 114.268 24.2747L114.654 24.0612L114.675 23.6575C114.693 23.3188 114.676 23.2477 114.568 23.216C114.498 23.1952 114.321 23.1163 114.176 23.0407C113.856 22.8737 113.532 22.8649 113.298 23.0168C113.13 23.1255 113.112 23.1212 112.871 22.9115C112.545 22.6288 112.137 22.4254 111.785 22.3697C111.55 22.3325 111.422 22.2356 110.99 21.7691C110.56 21.304 110.439 21.2129 110.255 21.2129C110.088 21.2129 109.964 21.1394 109.743 20.9103C109.316 20.4666 109.272 20.4435 108.65 20.3355C108.337 20.2811 107.864 20.1393 107.599 20.0204C107.044 19.7718 106.723 19.7511 105.989 19.9161C105.578 20.0084 105.429 20.0134 105.138 19.9443C104.702 19.8409 104.012 19.409 103.759 19.0809C103.597 18.8708 103.518 18.8307 103.209 18.8014C102.977 18.7794 102.797 18.7161 102.704 18.6247C102.514 18.4364 102.587 18.2082 102.856 18.1497C102.968 18.1254 103.117 18.0422 103.188 17.9646C103.354 17.783 103.279 17.6549 102.841 17.374C102.58 17.2064 102.503 17.1118 102.47 16.9162C102.381 16.382 102.089 15.8166 101.613 15.255L101.379 14.9791L100.391 14.9264C97.9852 14.798 97.5658 14.7927 96.9566 14.8833C96.3804 14.9688 96.0275 14.9822 95.2352 14.9481C94.9375 14.9352 94.2244 14.988 92.6342 15.1405C92.2064 15.1815 91.8983 15.2528 91.7088 15.3547C91.5264 15.4528 91.2991 15.5074 91.0733 15.5074C90.6406 15.5074 89.8336 15.6394 89.6412 15.7416C89.5628 15.7833 89.3383 15.8416 89.1424 15.8712C88.9464 15.9008 88.5923 15.9536 88.3556 15.9886C88.1188 16.0235 87.8302 16.1 87.7142 16.1586C87.4385 16.2979 86.83 16.4231 86.4289 16.4231C86.2146 16.4231 85.9681 16.4938 85.6786 16.6382C85.4414 16.7566 84.9213 16.9611 84.5226 17.0928C83.8485 17.3156 83.7529 17.3296 83.1565 17.2924C82.5226 17.2529 82.5095 17.2554 82.0331 17.5069C81.7592 17.6515 81.4495 17.7614 81.316 17.7614C81.1456 17.7614 81.0233 17.8215 80.8716 17.9799C80.7565 18.1001 80.4626 18.3401 80.2185 18.5133C79.8557 18.7706 79.6895 18.8401 79.3085 18.8934C79.0218 18.9336 78.7401 19.0256 78.5766 19.1325C78.4304 19.2281 78.1985 19.344 78.0613 19.3901C77.9241 19.4362 77.7061 19.5799 77.5769 19.7094C77.3316 19.9553 77.1537 19.9976 76.9092 19.8683C76.7673 19.7932 76.7685 19.7869 76.9674 19.5789C77.2272 19.3069 78.0423 18.7596 78.6063 18.4782C78.8473 18.358 79.1039 18.186 79.1764 18.0959C79.249 18.0058 79.4139 17.8893 79.5429 17.8371C79.6719 17.7847 79.904 17.6513 80.0589 17.5404C80.2137 17.4295 80.4024 17.3388 80.4781 17.3388C80.7168 17.3388 81.0425 16.9945 81.31 16.4595L81.5683 15.9429L82.057 15.7875C82.5719 15.6239 82.6517 15.626 83.5128 15.8269C83.7871 15.8909 84.2361 15.9482 84.5104 15.9543L85.0092 15.9653L85.0301 15.419C85.0557 14.7453 85.1544 14.6505 85.81 14.67C86.3041 14.6846 86.3988 14.6444 86.3988 14.4201C86.3988 14.1965 86.2436 14.0879 85.8637 14.0455C85.5662 14.0124 85.5245 14.0286 85.2985 14.2655C85.1642 14.4062 85.0048 14.5213 84.9442 14.5213C84.8138 14.5213 84.261 14.31 84.261 14.2602C84.261 14.2412 84.3606 14.1337 84.4823 14.0212C84.6489 13.8675 84.7729 13.8169 84.984 13.8169C85.2944 13.8169 85.7201 13.6299 85.9289 13.4017C86.0371 13.2835 86.1481 13.2534 86.4769 13.2534C86.7037 13.2534 86.9091 13.2217 86.9333 13.183C86.9575 13.1442 87.0481 13.1125 87.1345 13.1125C87.221 13.1125 87.4114 13.0491 87.5576 12.9717C87.7039 12.8942 87.9336 12.8308 88.0681 12.8308C88.4204 12.8308 88.709 12.4886 88.4422 12.3874C88.1803 12.2881 87.395 12.2804 86.9764 12.373ZM91.2476 12.5912C90.8268 12.7029 90.5928 12.863 90.6468 13.0019C90.702 13.1442 91.1564 13.3238 91.4608 13.3238H91.7434V12.9012C91.7434 12.6688 91.7194 12.4807 91.69 12.4832C91.6605 12.4858 91.4615 12.5344 91.2476 12.5912ZM106.227 16.5662C106.094 16.619 106.067 16.6839 106.067 16.9473C106.067 17.2225 106.093 17.278 106.263 17.3644C106.648 17.5603 107.024 17.6203 107.581 17.5749C108.086 17.5337 108.133 17.5168 108.133 17.3771C108.133 17.1933 107.86 16.9824 107.257 16.7003C106.807 16.49 106.515 16.4519 106.227 16.5662ZM103.697 17.4855C103.617 17.5722 103.573 17.734 103.573 17.9375V18.2545H103.989C104.405 18.2545 104.406 18.2551 104.952 18.7475C105.377 19.1306 105.548 19.2406 105.716 19.2406C105.895 19.2406 105.949 19.1989 106.035 18.9963C106.139 18.7506 106.171 18.1373 106.095 17.8574C106.018 17.5726 105.234 17.337 104.392 17.3451C103.926 17.3496 103.799 17.3751 103.697 17.4855ZM106.423 18.497C106.423 18.8862 106.446 18.9665 106.582 19.0605C106.814 19.2214 107.126 19.1945 107.396 18.9905C107.593 18.8424 107.635 18.7638 107.635 18.5436C107.635 18.1507 107.476 18.0432 106.899 18.0432H106.423V18.497ZM109.085 18.784C109.02 18.9516 109.195 19.5346 109.385 19.7802C109.488 19.9137 109.692 20.0511 109.896 20.1234C110.083 20.1898 110.407 20.323 110.616 20.4197C111.031 20.6111 111.357 20.6064 111.668 20.4044C111.8 20.3191 111.839 20.2313 111.839 20.0188C111.839 19.7078 111.695 19.5224 111.453 19.5224C111.062 19.5224 110.094 19.0809 109.852 18.7923C109.723 18.6387 109.144 18.6324 109.085 18.784ZM90.2037 19.9155C90.3111 20.1921 90.2403 20.337 89.8542 20.6318C89.5492 20.8646 89.4013 20.9311 89.1886 20.9311C88.6977 20.9311 88.4614 20.419 88.8258 20.1451C89.2427 19.8318 90.1147 19.6865 90.2037 19.9155ZM76.5986 20.7726C76.4222 21.1938 76.0742 21.3798 75.2915 21.4714C74.9629 21.5099 74.9418 21.5013 74.7242 21.2404C74.4824 20.9505 74.4373 20.7902 74.5972 20.7902C74.6517 20.7902 74.772 20.7279 74.8645 20.6517C75.0103 20.5316 75.1441 20.5129 75.871 20.5108L76.7093 20.5085L76.5986 20.7726ZM115.806 23.6547C115.715 23.7442 115.759 24.2815 115.869 24.4373C115.963 24.5692 116.047 24.5939 116.404 24.5939H116.827V24.2468C116.827 23.9557 116.797 23.8762 116.639 23.7538C116.456 23.6114 115.915 23.5471 115.806 23.6547ZM112.872 49.5304C112.087 49.6116 111.503 49.7828 110.734 50.1578C109.46 50.7792 108.532 51.6984 107.918 52.945C107.389 54.0203 107.315 54.3619 107.318 55.7273C107.321 56.8092 107.335 56.931 107.522 57.4883C107.881 58.5604 108.361 59.3411 109.105 60.0663C110.244 61.175 111.583 61.7536 113.193 61.8324C114.505 61.8967 115.625 61.6217 116.787 60.9505C117.349 60.6261 118.322 59.6939 118.726 59.0929C120.001 57.1979 120.09 54.6388 118.953 52.6281C117.774 50.5445 115.292 49.28 112.872 49.5304ZM89.6768 55.6217V61.6441H92.171H94.6651V60.7636V59.8832H93.133H91.6009V54.7412V49.5992H90.6389H89.6768V55.6217ZM81.8844 49.7231C81.7011 50.0163 76.7891 61.5413 76.8306 61.5808C76.9032 61.6498 78.7532 61.688 78.8202 61.6218C78.8487 61.5936 79.1636 60.85 79.5199 59.9696L80.1677 58.3687L82.3102 58.3501L84.4527 58.3315L85.1498 59.9526L85.8468 61.5737H86.8711C87.4344 61.5737 87.8953 61.5611 87.8953 61.5458C87.8953 61.5305 86.7769 58.86 85.4099 55.6115L82.9244 49.7049L82.423 49.6843C82.1471 49.673 81.9048 49.6905 81.8844 49.7231ZM96.5891 55.6921V61.7145L98.246 61.7141C100.186 61.7136 100.996 61.6159 101.927 61.2704C102.839 60.9317 103.307 60.634 103.998 59.9536C104.892 59.0734 105.314 58.2863 105.583 56.9987C105.844 55.7539 105.687 54.0973 105.205 53.0144C104.683 51.842 103.671 50.8374 102.466 50.2976C101.421 49.8292 100.322 49.6711 98.1034 49.6703L96.5891 49.6697V55.6921ZM114.54 51.4685C115.265 51.6375 115.938 52.0246 116.549 52.625C117.395 53.4563 117.825 54.4635 117.825 55.6143C117.825 56.7908 117.411 57.7629 116.545 58.6184C115.67 59.484 114.716 59.881 113.514 59.881C112.292 59.881 111.359 59.4864 110.446 58.5834C109.567 57.7135 109.202 56.8458 109.202 55.6217C109.202 54.8886 109.329 54.3343 109.64 53.711C110.168 52.6502 111.306 51.7472 112.465 51.4696C113.011 51.3386 113.98 51.3381 114.54 51.4685ZM100.462 51.6044C101.552 51.7965 102.534 52.4067 103.094 53.2388C103.611 54.0084 103.745 54.4734 103.748 55.516C103.752 56.5915 103.586 57.1755 103.057 57.9577C102.199 59.2255 100.867 59.8733 99.1011 59.8807L98.5132 59.8832V55.6921V51.5011L99.208 51.5035C99.5901 51.5049 100.154 51.5503 100.462 51.6044ZM83.0647 54.863C83.4454 55.7804 83.7466 56.541 83.7342 56.5533C83.7218 56.5656 83.0846 56.567 82.3182 56.5565L80.9249 56.5374L81.6131 54.8646C81.9916 53.9446 82.3174 53.1926 82.337 53.1935C82.3566 53.1944 82.6841 53.9457 83.0647 54.863ZM66.3389 65.341C63.8755 65.8793 62.0795 67.6253 61.4831 70.0614C61.3046 70.7908 61.3189 72.0751 61.5142 72.8584C62.057 75.0346 63.7242 76.7389 65.9262 77.3684C66.6613 77.5785 68.3578 77.5951 69.0824 77.3993C69.5288 77.2787 70.98 76.6139 71.2397 76.4111C71.3539 76.322 71.3641 76.1858 71.3466 74.9946L71.3271 73.6766L71.0777 74.0079C70.5967 74.647 69.6205 75.2552 68.7216 75.4759C68.1389 75.619 67.0421 75.6241 66.517 75.4862C64.4227 74.9359 62.9854 72.84 63.3052 70.8025C63.5328 69.3522 64.3392 68.2033 65.5646 67.5832C66.3509 67.1852 66.7092 67.1023 67.6216 67.1072C68.2838 67.1108 68.48 67.1394 68.8859 67.2919C69.6123 67.5649 70.1196 67.891 70.7716 68.5038L71.3626 69.0593L71.3278 68.6447C71.3086 68.4166 71.2731 67.823 71.249 67.3256L71.2051 66.4211L70.783 66.1515C70.2208 65.7922 69.4546 65.4845 68.7826 65.348C68.1241 65.2142 66.9347 65.2108 66.3389 65.341ZM77.9163 65.3414C75.9029 65.7384 74.0986 67.2368 73.3557 69.1292C72.7349 70.7104 72.798 72.5171 73.5284 74.0716C74.1411 75.3756 75.4159 76.5721 76.7674 77.1116C77.655 77.466 78.0268 77.5281 79.2371 77.5236C80.2845 77.5197 80.4266 77.5034 80.983 77.3237C83.0444 76.6577 84.4689 75.2491 85.1576 73.1959C85.3444 72.639 85.3587 72.5159 85.362 71.4349C85.3661 70.0977 85.2949 69.7596 84.7912 68.7231C83.9222 66.9346 82.3181 65.7104 80.3532 65.336C79.7158 65.2146 78.5466 65.2172 77.9163 65.3414ZM109.247 65.3475C108.062 65.609 107.128 66.1005 106.261 66.9188C105.603 67.5394 105.23 68.0529 104.855 68.8556C104.44 69.7439 104.32 70.3254 104.325 71.4349C104.329 72.5588 104.44 73.0666 104.89 74.0151C105.267 74.8102 105.607 75.2696 106.298 75.9173C107.56 77.1002 109.048 77.6271 110.895 77.5452C113.955 77.4095 116.381 75.137 116.753 72.0578C116.894 70.8926 116.69 69.7968 116.119 68.6526C115.343 67.0957 114.077 66.0342 112.338 65.4808C111.822 65.3168 111.584 65.2845 110.734 65.2637C110.019 65.2463 109.598 65.27 109.247 65.3475ZM87.3965 71.3997V77.3517H88.3941H89.3918V74.9322V72.5127L90.1876 72.4649C91.5161 72.3851 92.2164 72.1346 92.9259 71.4854C93.7252 70.7539 94.0616 69.8602 94.0054 68.6174C93.9526 67.4513 93.5561 66.6767 92.7225 66.1103C91.9389 65.5781 91.1985 65.4477 88.9591 65.4477H87.3965V71.3997ZM96.2328 71.3922V77.3517H97.2305H98.2281V74.9324V72.5131L98.9942 72.469C100.412 72.3877 101.243 72.0576 101.953 71.2941C102.56 70.6414 102.858 69.8304 102.859 68.8259C102.862 67.1688 102.026 66.0522 100.456 65.6135C100.14 65.5251 99.6055 65.491 98.1391 65.4657L96.2328 65.4327V71.3922ZM118.823 71.3997V77.3517H121.352H123.882V76.4712V75.5908H122.314H120.747V70.5192V65.4477H119.785H118.823V71.3997ZM130.044 65.5219C130.016 65.566 128.844 68.222 127.439 71.4241L124.885 77.246L125.328 77.2906C125.571 77.3151 126.043 77.3383 126.376 77.3421L126.982 77.349L127.635 75.7479L128.287 74.1468L130.485 74.1302L132.683 74.1137L133.363 75.6799L134.043 77.246L135.091 77.2655C135.667 77.2763 136.139 77.2763 136.139 77.2655C136.139 77.2548 135.004 74.5993 133.617 71.3645L131.096 65.4829L130.595 65.4624C130.276 65.4493 130.076 65.471 130.044 65.5219ZM80.5727 67.298C81.275 67.5531 81.7951 67.8887 82.2905 68.4065C82.8087 68.9481 83.2163 69.6783 83.3761 70.3511C83.5331 71.0122 83.4806 72.1481 83.2651 72.7537C82.8467 73.9292 81.7973 74.9666 80.607 75.3815C79.9893 75.5967 78.7669 75.6513 78.1363 75.4916C76.9008 75.1787 75.931 74.4105 75.3194 73.2601C74.9577 72.5796 74.8318 71.9721 74.8756 71.118C74.9343 69.9736 75.308 69.1443 76.1317 68.3302C76.6856 67.7827 77.3431 67.4016 78.0696 67.207C78.8023 67.0108 79.8911 67.0504 80.5727 67.298ZM111.842 67.2645C113.192 67.7362 114.211 68.7098 114.617 69.9174C115.163 71.538 114.768 73.1844 113.546 74.3911C112.732 75.1943 111.746 75.5908 110.564 75.5908C109.299 75.5908 108.369 75.2099 107.49 74.331C106.873 73.7146 106.555 73.1699 106.35 72.3791C105.922 70.7253 106.56 68.9432 107.94 67.9387C108.518 67.518 108.822 67.3691 109.441 67.2029C110.097 67.0268 111.247 67.0563 111.842 67.2645ZM90.9862 67.3786C91.4937 67.4967 91.7272 67.6577 91.9422 68.038C92.2766 68.6295 92.2085 69.5368 91.7946 70.0027C91.4197 70.4249 91.0988 70.5397 90.1935 70.5756L89.3918 70.6074V68.9433V67.2791L89.9797 67.2802C90.3031 67.2808 90.7559 67.3251 90.9862 67.3786ZM99.7014 67.3569C99.9498 67.3996 100.257 67.5039 100.384 67.5885C101.067 68.0431 101.202 69.3079 100.64 69.9824C100.276 70.4182 99.9479 70.5392 99.0298 70.5756L98.2281 70.6074V68.9433V67.2791H98.7389C99.0199 67.2791 99.453 67.3141 99.7014 67.3569ZM131.24 70.6083C131.622 71.5087 131.935 72.2691 131.935 72.298C131.935 72.327 131.293 72.3506 130.509 72.3506C129.725 72.3506 129.084 72.3282 129.084 72.3009C129.084 72.2081 130.467 68.9696 130.506 68.9704C130.527 68.9707 130.858 69.7078 131.24 70.6083ZM149.353 76.9702C149.417 77.2238 149.322 77.9923 149.205 78.1598C149.152 78.2362 149.108 78.4435 149.108 78.6206C149.108 78.8669 148.981 79.2309 148.566 80.1721C148.267 80.8485 147.608 82.4162 147.102 83.6559C146.174 85.9254 145.381 87.5263 144.095 89.7271C143.797 90.2383 143.48 90.8031 143.392 90.9824C143.274 91.2221 143.181 91.3186 143.04 91.3465C142.887 91.3767 142.712 91.5878 142.183 92.3803C141.818 92.9281 141.284 93.6499 140.995 93.9844C140.707 94.3188 140.16 95.0161 139.778 95.534C139.396 96.0518 138.954 96.5706 138.794 96.6868C138.569 96.8508 138.512 96.933 138.54 97.0537C138.569 97.1805 138.413 97.3637 137.697 98.0399C137.214 98.4967 136.16 99.5043 135.355 100.279C134.549 101.054 133.298 102.162 132.574 102.742C131.279 103.778 129.804 105.007 128.937 105.772C128.694 105.986 128.46 106.161 128.416 106.161C128.166 106.161 127.391 106.626 127.007 107.006C126.635 107.373 126.481 107.467 125.842 107.714C125.437 107.87 124.822 108.176 124.476 108.393C124.13 108.611 123.778 108.784 123.693 108.779C123.602 108.773 123.494 108.84 123.425 108.943C123.259 109.195 122.985 109.351 122.609 109.409C122.017 109.501 121.582 109.707 121.19 110.081C120.928 110.331 120.737 110.452 120.558 110.481C120.417 110.503 120.246 110.571 120.179 110.631C120.111 110.692 119.867 110.789 119.635 110.849C119.404 110.908 119.01 111.05 118.761 111.165C118.231 111.408 118.11 111.422 118.11 111.239C118.11 111.153 118.232 111.035 118.448 110.911C118.635 110.805 118.899 110.631 119.036 110.525C119.174 110.42 119.494 110.281 119.749 110.217C120.244 110.093 120.587 109.91 122.101 108.964C122.63 108.633 123.796 107.944 124.693 107.432C126.565 106.366 127.819 105.563 129.074 104.631C129.558 104.272 130.094 103.916 130.265 103.841C130.777 103.617 131.218 103.287 132.006 102.536C132.417 102.144 133.011 101.603 133.324 101.333C133.638 101.064 134.377 100.384 134.966 99.8221C135.556 99.2599 136.375 98.483 136.786 98.0956C137.355 97.5594 137.597 97.2734 137.798 96.8981C137.982 96.5544 138.159 96.335 138.384 96.1737C138.56 96.0464 138.838 95.777 139 95.575C139.275 95.2334 139.702 94.4528 139.702 94.292C139.702 94.2532 139.846 94.1319 140.021 94.0225C140.444 93.7586 140.593 93.5732 141.203 92.5535C141.487 92.0796 142.062 91.1675 142.481 90.5266C142.9 89.8857 143.475 88.9814 143.757 88.517C144.04 88.0526 144.377 87.5771 144.506 87.4604C144.786 87.2074 144.985 86.8365 145.15 86.2621C145.217 86.0296 145.414 85.598 145.588 85.3029C145.964 84.664 146.388 83.7159 146.623 82.9867C146.716 82.6962 146.899 82.2841 147.029 82.071C147.475 81.3408 147.912 80.3618 148.047 79.7902C148.247 78.9435 148.893 77.1289 149.06 76.9467C149.246 76.743 149.296 76.7471 149.353 76.9702ZM117.422 111.399C117.311 111.53 117.107 111.693 116.97 111.76C116.639 111.924 115.844 112.148 115.595 112.148H115.396L115.594 111.903C115.854 111.58 116.844 111.19 117.458 111.168L117.625 111.162L117.422 111.399Z" fill="white"/>
</g>
</g>
</svg>
