<svg width="200" height="130" viewBox="0 0 200 130" fill="none" xmlns="http://www.w3.org/2000/svg">
<mask id="mask0_18019_145" style="mask-type:alpha" maskUnits="userSpaceOnUse" x="0" y="0" width="200" height="130">
<rect width="200" height="130" fill="#D9D9D9"/>
</mask>
<g mask="url(#mask0_18019_145)">
<g opacity="0.5">
<path fill-rule="evenodd" clip-rule="evenodd" d="M66 47.7919C66 83.1006 66.0131 84.6982 66.3253 87.4182C66.5043 88.9772 66.7379 90.666 66.8445 91.1712C67.8155 95.774 69.7686 99.1953 72.8011 101.604C75.5601 103.796 80.0127 105.211 84.9758 105.471L87.0749 105.582L87.0307 94.0756C87.0065 87.7472 87.0065 79.6035 87.0307 75.9783L87.0749 69.3872L89.4925 72.0532C92.9137 75.8259 92.9824 75.9023 94.3797 77.4763C95.0724 78.2566 95.6788 78.9326 95.7272 78.9785C95.8029 79.0505 101.598 85.5307 103.028 87.1428C103.305 87.4551 103.607 87.794 103.7 87.8959C103.792 87.9979 105.114 89.4717 106.637 91.1712C108.16 92.8707 109.579 94.449 109.792 94.6787C110.004 94.9083 111.025 96.053 112.06 97.2223L113.943 99.3483L124.061 99.3518C133.019 99.355 134.731 99.2935 134.053 98.9934C133.983 98.9628 133.36 98.2989 132.668 97.5181C131.975 96.7373 131.333 96.0155 131.24 95.9142C131.148 95.8129 130.609 95.2117 130.043 94.578C123.133 86.8419 119.609 82.9052 118.981 82.2194C118.889 82.1187 118.36 81.5179 117.806 80.8846C116.724 79.6491 115.748 78.5646 114.513 77.2273C113.843 76.5019 113.115 75.6835 110.585 72.8113C110.308 72.4968 109.648 71.7765 109.119 71.2106C108.591 70.6447 108.01 69.9941 107.829 69.7652C107.5 69.3498 107.5 69.3476 107.866 68.9421C108.068 68.7184 108.8 67.8978 109.493 67.1187C110.186 66.3393 110.828 65.621 110.921 65.5219C111.058 65.3753 112.779 63.4527 113.439 62.7078C113.721 62.3907 116.45 59.3658 116.63 59.1719C116.722 59.0722 117.289 58.4398 117.89 57.7665C118.49 57.0933 119.057 56.4609 119.149 56.361C119.241 56.2613 119.574 55.879 119.889 55.5115C120.204 55.1443 121.079 54.1672 121.835 53.3404C122.591 52.5136 123.505 51.499 123.866 51.0856C124.227 50.6722 124.563 50.2964 124.612 50.2505C124.661 50.2046 125.943 48.7765 127.461 47.077C128.979 45.3776 130.262 43.9495 130.311 43.9036C130.36 43.8577 130.966 43.1812 131.657 42.4004C132.349 41.6196 133.198 40.68 133.545 40.3126C133.891 39.9451 134.176 39.588 134.177 39.5192C134.178 39.4504 129.623 39.394 124.055 39.394H113.931L113.401 40.0203C112.683 40.8686 112.105 41.5207 111.367 42.3169C111.027 42.6843 109.238 44.6761 107.393 46.743C105.548 48.8099 103.999 50.5386 103.952 50.5845C103.904 50.6305 102.356 52.3592 100.512 54.4261C98.6674 56.493 97.1176 58.2217 97.0677 58.2676C97.0179 58.3135 96.0412 59.4034 94.8973 60.6894C93.7533 61.9755 92.4697 63.4036 92.0447 63.8629C91.6198 64.3222 90.7056 65.3359 90.0131 66.1154C89.3207 66.895 88.6143 67.6842 88.4432 67.8691C88.272 68.0542 87.9421 68.4498 87.7095 68.7483C87.4771 69.047 87.2196 69.2911 87.1375 69.2911C87.0507 69.2911 87.0064 57.0867 87.0316 40.1456L87.0749 11H76.5374H66V47.7919ZM66.71 112.018C66.5464 112.124 66.5071 112.936 66.5421 115.485L66.5877 118.814H67.1755H67.7632L67.8138 117.648C67.8603 116.575 68.1342 115.891 68.5167 115.891C68.5794 115.891 69.1009 116.567 69.6761 117.394L70.7216 118.897H71.5614C72.5398 118.897 72.5955 119.073 70.9065 116.825C70.223 115.915 69.6336 115.088 69.5967 114.988C69.5597 114.887 70.0947 114.214 70.7854 113.491C71.4759 112.769 71.9945 112.102 71.9374 112.011C71.8803 111.919 71.5194 111.879 71.1352 111.922C70.5404 111.988 70.2884 112.156 69.436 113.05C68.8853 113.628 68.3216 114.217 68.1831 114.359C67.9584 114.589 67.9221 114.474 67.8472 113.291C67.7671 112.026 67.7443 111.964 67.3434 111.922C67.1125 111.898 66.8275 111.942 66.71 112.018ZM73.1695 111.989C73.1053 112.053 73.0529 113.635 73.0529 115.505V118.906L75.5299 118.86L78.0068 118.814V118.229V117.644L76.1176 117.597L74.2284 117.55V116.72V115.891H75.8237H77.4191V115.312V114.734L75.8657 114.686L74.3124 114.638V113.97V113.302L76.1274 113.254L77.9425 113.207L77.8906 112.586L77.8389 111.966L75.5624 111.919C74.3104 111.894 73.2335 111.925 73.1695 111.989ZM78.8372 112.096C78.7917 112.214 79.2327 113.774 79.8172 115.562L80.8802 118.814H81.5966H82.3131L83.032 116.642C84.1662 113.217 84.472 112.243 84.472 112.056C84.472 111.96 84.1835 111.882 83.831 111.882C83.1081 111.882 83.2132 111.666 82.187 115.264C81.9316 116.16 81.6626 116.893 81.5892 116.893C81.5158 116.893 81.4083 116.686 81.3504 116.433C81.0636 115.184 80.0411 112.118 79.875 112.01C79.5687 111.811 78.9267 111.865 78.8372 112.096ZM85.3499 112.018C85.1864 112.124 85.1471 112.936 85.182 115.485L85.2277 118.814H85.8154H86.4032V115.39V111.966L85.9834 111.922C85.7525 111.898 85.4675 111.942 85.3499 112.018ZM87.7009 112.022C87.5374 112.125 87.4981 112.934 87.533 115.485L87.5787 118.814H88.1664H88.7542L88.8381 116.475L88.9221 114.137L89.5777 115.306C89.9382 115.949 90.5483 117.001 90.9333 117.644C91.6319 118.811 91.6351 118.814 92.3768 118.814H93.1203L93.1658 115.427C93.2151 111.749 93.2078 111.719 92.285 111.95C91.8721 112.053 91.87 112.063 91.8235 114.348L91.7768 116.642L91.3339 115.891C91.0902 115.477 90.6841 114.763 90.4316 114.304C89.5824 112.76 89.2917 112.301 89.0321 112.091C88.7412 111.856 88.0233 111.818 87.7009 112.022ZM96.4697 112.096C96.4244 112.213 96.4079 113.773 96.4331 115.561L96.4788 118.814L97.1085 118.865L97.7383 118.917V116.619C97.7383 114.181 97.86 113.968 98.2963 115.64C98.44 116.191 98.6953 117.131 98.8634 117.728L99.169 118.814L99.8592 118.864C100.406 118.904 100.568 118.851 100.639 118.613C100.689 118.448 100.959 117.458 101.241 116.414C101.522 115.369 101.794 114.473 101.844 114.423C101.895 114.373 101.936 115.359 101.936 116.614V118.897H102.608H103.28V115.491C103.28 111.746 103.319 111.879 102.217 111.885C101.456 111.888 101.254 112.072 101.005 112.989C100.884 113.437 100.623 114.404 100.425 115.139C100.038 116.58 99.8392 116.937 99.6958 116.45C98.986 114.039 98.5779 112.537 98.5779 112.334C98.5779 112.009 98.2189 111.882 97.2995 111.882C96.8474 111.882 96.5196 111.966 96.4697 112.096ZM104.497 111.993C104.224 112.102 104.208 116.096 104.476 117.155C104.946 119.013 107.435 119.634 108.834 118.243C109.49 117.59 109.659 116.775 109.66 114.265L109.661 112.055L109.242 111.951C108.363 111.731 108.318 111.849 108.315 114.341C108.312 116.877 108.182 117.357 107.427 117.606C106.811 117.81 105.99 117.477 105.785 116.939C105.7 116.718 105.631 115.535 105.631 114.311C105.631 112.435 105.589 112.069 105.365 111.983C105.063 111.868 104.801 111.871 104.497 111.993ZM110.744 112.096C110.698 112.213 110.682 113.773 110.707 115.561L110.753 118.814H111.34H111.928L112.012 117.517C112.058 116.804 112.153 116.222 112.222 116.223C112.291 116.224 112.745 116.226 113.23 116.227C114.476 116.231 114.601 116.354 114.699 117.68L114.783 118.814L115.435 118.867L116.087 118.92L116.009 117.574C115.953 116.62 115.846 116.137 115.641 115.911C115.366 115.609 115.373 115.571 115.781 115.133C116.699 114.148 116.096 112.469 114.694 112.104C113.626 111.826 110.85 111.82 110.744 112.096ZM117.33 111.993C117.268 112.055 117.218 113.633 117.218 115.501V118.897H117.798H118.379L118.428 117.686L118.477 116.475L119.661 116.392C121.595 116.255 122.351 115.536 122.22 113.957C122.088 112.373 121.276 111.905 118.631 111.889C117.977 111.885 117.391 111.932 117.33 111.993ZM123.17 112.096C123.125 112.213 123.108 113.773 123.134 115.561L123.179 118.814H123.767H124.355L124.403 117.352L124.452 115.891H125.866H127.28L127.329 117.352L127.377 118.814H127.965H128.553L128.598 115.435L128.644 112.057L128.221 111.952C127.407 111.749 127.293 111.924 127.293 113.38V114.721H125.866H124.439V113.403C124.439 112.355 124.384 112.064 124.173 111.983C123.733 111.816 123.258 111.869 123.17 112.096ZM129.238 112.027C129.199 112.091 129.631 112.968 130.2 113.975C131.211 115.764 131.237 115.842 131.321 117.31L131.408 118.814H131.995H132.583L132.667 117.394C132.737 116.212 132.829 115.856 133.213 115.268C133.467 114.879 133.675 114.52 133.675 114.469C133.675 114.419 133.973 113.854 134.337 113.214L135 112.051L134.589 111.948C133.765 111.743 133.453 111.989 132.772 113.387C132.414 114.121 132.068 114.721 132.004 114.721C131.94 114.721 131.651 114.214 131.363 113.594C131.075 112.974 130.768 112.363 130.68 112.236C130.513 111.993 129.363 111.826 129.238 112.027ZM114.603 113.481C114.929 113.805 114.94 114.224 114.633 114.641C114.452 114.889 114.134 114.974 113.206 115.026L112.012 115.093V114.156V113.218H113.176C114.009 113.218 114.414 113.293 114.603 113.481ZM120.587 113.391C120.806 113.508 120.911 113.739 120.91 114.101C120.905 114.988 120.711 115.135 119.534 115.137L118.477 115.139L118.425 114.41C118.396 114.009 118.412 113.577 118.462 113.45C118.569 113.171 120.095 113.129 120.587 113.391ZM94.2118 118.155V118.917L94.8415 118.865C95.4528 118.815 95.4728 118.793 95.5228 118.104L95.5745 117.394H94.8931H94.2118V118.155Z" fill="white"/>
</g>
</g>
</svg>
