<svg width="200" height="130" viewBox="0 0 200 130" fill="none" xmlns="http://www.w3.org/2000/svg">
<mask id="mask0_18019_146" style="mask-type:alpha" maskUnits="userSpaceOnUse" x="0" y="0" width="200" height="130">
<rect width="200" height="130" fill="#D9D9D9"/>
</mask>
<g mask="url(#mask0_18019_146)">
<g opacity="0.5">
<path fill-rule="evenodd" clip-rule="evenodd" d="M93.46 5.47334C69.924 8.92174 52.7397 30.6275 55.2421 53.746C56.377 64.2333 60.1442 72.3328 67.3931 79.8707C73.7925 86.5257 81.7281 91.0457 90.4368 92.9965C95.1608 94.0543 105.85 94.0649 110.213 93.0154C123.644 89.7858 134.274 81.5109 140.391 69.5232C141.521 67.3088 143.014 63.6744 143.708 61.4467C144.861 57.7477 144.973 56.7153 144.999 49.5504C145.031 40.4568 144.359 37.3342 140.828 30.1669C132.255 12.767 112.822 2.63597 93.46 5.47334ZM97.5328 8.78283C93.3165 12.8926 93.8303 16.1605 99.1783 19.2467C105.758 23.043 106.778 25.5837 104.665 32.9046C102.569 40.1646 105.362 43.6661 115.378 46.335C123.689 48.5498 126.895 50.7452 127.241 54.4599C127.396 56.1204 127.362 56.2303 127.05 55.0885C126.458 52.9203 125.682 51.7536 124.042 50.5657C122.082 49.1465 120.636 48.6213 115.493 47.4606C108.387 45.8569 104.153 43.4261 102.253 39.8586C101.09 37.678 101.295 33.8502 102.75 30.5269C104.956 25.4927 104.16 22.8427 99.7492 20.525C95.818 18.4593 94.2701 17.1583 93.9302 15.6349C93.4361 13.4215 94.1224 11.4984 96.1968 9.28311L98.1268 7.222L96.2619 7.98626C93.8908 8.95774 93.3142 9.53694 92.5116 11.754L91.8605 13.5525L91.8399 11.694C91.8038 8.439 93.5402 6.94417 97.4198 6.88971L99.505 6.86064L97.5328 8.78283ZM113.519 8.30655C116.77 9.33618 124.166 12.8317 124.166 13.3384C124.166 13.5184 123.354 13.793 122.361 13.9494C118.908 14.4931 116.616 17.2802 116.729 20.7983C116.765 21.9285 116.872 22.2862 116.977 21.629C117.607 17.6909 118.588 16.5524 121.353 16.5524C124.22 16.5524 125.267 17.8317 125 21.0087C124.543 26.4227 119.703 29.3773 114.274 27.5552C111.352 26.575 108.812 24.531 108.203 22.6706C107.42 20.2786 107.029 19.8988 104.996 19.5605C102.315 19.1147 100.431 17.7777 99.7905 15.8656C99.1192 13.8627 99.4933 11.4102 100.618 10.4447C101.749 9.47417 103.572 8.5853 103.857 8.8659C103.988 8.99466 103.433 9.43679 102.625 9.84846C100.647 10.8555 100.069 12.4477 100.94 14.4977C101.312 15.3741 101.772 16.0908 101.963 16.0908C102.155 16.0908 103.096 15.2361 104.057 14.1913C105.515 12.6046 105.857 11.8362 106.129 9.53094L106.454 6.7711L108.531 7.07755C109.673 7.246 111.918 7.79935 113.519 8.30655ZM88.9939 9.28357C88.4965 10.3621 88.0849 11.9825 88.0792 12.8833C88.0657 15.07 87.4244 15.658 85.7367 15.0308C84.5929 14.6057 84.2221 14.7045 82.9263 15.7775C81.2387 17.1754 80.4643 17.3102 79.6523 16.347C78.8896 15.4424 79.2243 13.511 80.1108 13.7007C80.6527 13.817 80.6804 13.7265 80.2364 13.2821C79.4109 12.4546 78.2244 13.5636 78.2244 15.1623C78.2244 16.7245 79.8591 18.8599 81.0554 18.8599C81.5434 18.8599 82.684 18.5119 83.5892 18.0869C85.1292 17.3642 85.2918 17.3642 86.1033 18.0869C87.3095 19.1617 88.1969 19.0542 89.4045 17.6872C90.5591 16.3793 91.3945 16.5168 91.0134 17.9521C90.6116 19.464 89.1893 19.878 82.9479 20.2984C75.4975 20.8006 72.0167 21.4347 69.3329 22.78C65.0008 24.9514 63.249 28.175 63.2335 34.0048C63.2227 38.0915 62.6625 39.8693 61.522 39.4382C61.1333 39.2914 60.9561 39.3768 61.1169 39.633C61.5853 40.3788 63.1562 40.1522 63.6362 39.2693C63.8814 38.8184 64.3117 36.8201 64.5935 34.8291C65.5887 27.7832 67.8286 24.6745 72.599 23.7192L74.2397 23.3906L72.0805 24.7649C69.091 26.6677 67.7742 29.4211 67.8014 33.7113C67.8394 39.6625 71.1752 43.787 76.2391 44.1438C78.471 44.3011 79.1465 44.1632 80.2167 43.3315C80.926 42.7805 81.5059 42.1011 81.5059 41.8214C81.5059 41.5418 80.9668 41.8118 80.3077 42.4214C77.9192 44.6302 74.1736 43.529 72.3753 40.0894C70.7346 36.9507 71.1865 32.0439 73.409 28.8701C76.1922 24.896 77.5025 25.525 80.8074 32.4223C84.4077 39.9371 85.1709 40.2422 87.8974 35.2532L89.3665 32.5649L89.6792 35.2888C90.4733 42.2142 87.5364 52.0328 84.193 53.6269C82.4651 54.4507 80.2908 53.871 79.838 52.4653C79.3795 51.0438 80.2918 50.4319 81.8359 51.1246C83.126 51.7033 83.1265 51.7024 82.2447 50.7429C81.182 49.5868 79.3204 49.4968 78.1442 50.5449C76.9249 51.6313 76.9859 54.5979 78.2455 55.4665C79.0851 56.0457 79.1095 56.1634 78.4414 56.4158C77.3609 56.8238 76.2686 56.7758 73.5459 56.2012C70.6211 55.5837 68.3799 53.8475 68.3799 52.1994C68.3799 49.3819 71.9544 48.2041 73.2684 50.5888C73.9275 51.785 73.9687 51.7984 73.9866 50.8195C74.0311 48.3435 70.4275 47.0965 67.536 48.5881C66.0664 49.3459 63.5804 51.8501 62.7854 53.374C62.3199 54.2661 61.9898 54.3833 60.6453 54.135C59.344 53.8946 58.8447 54.0496 57.8898 54.9897L56.7235 56.138L56.3944 53.1123C54.6383 36.9682 63.9128 19.956 78.9974 11.6511C81.3006 10.3829 88.7674 7.39599 89.8039 7.32815C89.8559 7.32492 89.4912 8.20502 88.9939 9.28357ZM127.447 16.0908C127.963 16.5985 128.378 17.3775 128.371 17.8215C128.357 18.5719 128.321 18.5696 127.861 17.7901C127.588 17.3286 126.697 16.5505 125.882 16.0613C124.552 15.2624 124.508 15.1711 125.455 15.1697C126.035 15.1688 126.931 15.5832 127.447 16.0908ZM97.2103 21.2976C98.4995 21.9326 99.9714 22.9064 100.481 23.4621C101.864 24.9685 101.707 27.6102 100.12 29.5305C95.3529 35.2975 95.2123 36.6604 98.8557 41.7979C100.627 44.2947 101.387 45.8389 101.551 47.271C101.77 49.1825 101.675 49.3681 99.2603 51.7181C97.875 53.0666 93.5106 56.3184 89.5616 58.944C80.5679 64.9228 77.1931 67.678 75.6147 70.3294C73.4953 73.8895 74.3166 75.6515 79.6308 78.9454L82.2091 80.5431V75.8925C82.2091 71.6244 82.3211 71.0429 83.5672 68.8286C84.7026 66.8118 87.2542 63.7829 86.589 65.2417C86.4737 65.4956 85.9997 66.5243 85.537 67.528C82.7351 73.6006 83.7819 81.0831 88.2354 86.8173C89.172 88.0228 89.795 89.0095 89.6206 89.0095C89.4458 89.0095 87.6016 87.2945 85.5215 85.1988C83.2587 82.9185 80.3761 80.5939 78.3435 79.4101C74.7469 77.3162 73.5365 75.7835 73.5365 73.3228C73.5365 69.5052 77.0876 65.9649 88.4927 58.4128C96.6656 53.0006 100.028 50.1489 100.522 48.2101C100.862 46.8801 100.002 45.0428 97.2909 41.2999C94.3249 37.2059 94.3568 33.3758 97.3884 29.5997C100.894 25.2343 100.954 24.0694 97.7621 22.4915C95.187 21.2187 92.7568 19.405 92.7568 18.7561C92.7568 18.4709 93.2317 18.6661 93.8116 19.1899C94.3915 19.7142 95.9211 20.6621 97.2103 21.2976ZM131.332 21.173C135.408 24.3288 130.852 30.6206 123.513 31.9737L121.689 32.3097L123.406 33.703C125.438 35.3515 126.525 37.2437 126.467 39.0279C126.427 40.2532 126.401 40.2366 125.962 38.7049C125.235 36.1652 122.907 34.141 118.189 31.946C113.638 29.8291 112.651 29.1613 115.61 30.2011C119.704 31.6391 124.895 30.3709 128.664 27.012C130.947 24.9768 131.469 23.2941 130.261 21.8611C129.505 20.9639 127.728 20.9709 126.967 21.8736C126.497 22.4306 126.49 22.8363 126.935 23.7972C127.436 24.8799 127.418 24.9486 126.77 24.4193C125.715 23.5576 125.875 21.7956 127.083 20.963C128.493 19.9902 129.895 20.0598 131.332 21.173ZM92.4863 21.6091C94.961 22.1745 96.7096 23.5327 96.891 25.0308C96.9984 25.9196 96.441 27.0485 94.8945 29.0741C93.7141 30.6197 92.619 32.3928 92.4605 33.0144C91.9688 34.9431 92.5543 37.8714 94.1444 41.4342C96.8939 47.5968 95.6103 51.9982 90.2666 54.7299C88.3 55.7355 87.1867 55.9774 84.4499 55.9926C81.4525 56.0092 80.9434 55.8828 79.9964 54.8845C79.4086 54.2652 79.2764 54.0141 79.7025 54.327C82.3619 56.281 86.4947 55.7014 89.6989 52.9245C93.9189 49.2679 94.7187 45.6289 92.5482 39.9634C91.2693 36.6258 91.0068 33.2793 91.8956 31.6364C92.1957 31.0821 93.2739 29.5407 94.2921 28.211C97.3373 24.2328 95.9891 22.5783 88.9995 21.7185C85.514 21.2893 85.5079 21.2861 88.0689 21.2381C89.487 21.2113 91.4747 21.3784 92.4863 21.6091ZM88.7182 24.2827C88.0122 27.21 86.1783 32.5497 85.6219 33.2978C85.086 34.0173 84.7073 33.6426 82.0919 29.8069C80.4807 27.4435 79.162 25.1683 79.162 24.7506C79.162 23.8101 81.9419 23.1326 86.0855 23.0629L89.0243 23.0135L88.7182 24.2827ZM134.95 27.6217C134.625 28.3956 133.203 30.0682 131.791 31.3387C128.871 33.9661 128.905 34.1918 132.513 36.2736C134.725 37.5502 138.488 37.9531 140.339 37.1122C141.175 36.7319 141.207 36.7698 140.635 37.4625C138.511 40.0322 132.895 39.2144 129.034 35.7729L126.78 33.7639L128.637 32.8991C130.889 31.8496 134.376 28.4233 134.772 26.8699C134.931 26.2482 135.169 25.8463 135.302 25.9769C135.434 26.1075 135.276 26.8477 134.95 27.6217ZM139.628 30.5292C139.632 30.7286 139.228 30.6769 138.729 30.4138C137.649 29.8448 137.292 29.8139 137.292 30.2883C137.292 30.4817 137.766 30.8453 138.346 31.0959C138.984 31.371 139.458 32.036 139.545 32.7758C139.826 35.1651 135.91 36.4213 134.01 34.5513C132.809 33.3684 132.814 33.3241 134.48 30.8592C135.252 29.7169 136.12 28.0827 136.408 27.2276L136.932 25.6732L138.276 27.9198C139.015 29.1557 139.623 30.3298 139.628 30.5292ZM72.455 27.0688C71.0093 28.6412 70.1303 31.5085 70.0938 34.7714C70.0539 38.3223 69.4435 37.2571 69.3643 33.4981C69.2987 30.3944 71.2324 26.2441 72.7443 26.2441C73.0021 26.2441 72.8718 26.6151 72.455 27.0688ZM116.59 33.2129C117.697 33.2784 115.305 33.9873 113.786 34.0436C112.76 34.0819 112.418 33.7709 111.794 32.2345C110.646 29.4096 110.841 29.2988 113.426 31.3101C114.738 32.3314 116.162 33.1875 116.59 33.2129ZM109.657 34.6666C110.806 37.7749 111.121 37.858 115.349 36.1666C116.935 35.532 118.839 35.0128 119.58 35.0128C121.332 35.0128 123.021 36.6959 123.678 39.0962C124.626 42.5636 123.056 45.0437 121.28 42.8843C120.614 42.0753 120.415 42.0042 120.415 42.5765C120.415 43.596 122.008 45.0788 123.5 45.4471C126.214 46.1181 129.791 42.7242 129.791 39.4784V38.3689L131.98 39.4599C133.546 40.2408 134.957 40.5509 136.938 40.5509C139.373 40.5509 139.873 40.388 141.075 39.2051C141.827 38.4649 142.53 38.0006 142.639 38.1732C142.88 38.5586 143.676 43.158 144.066 46.4324C144.352 48.8313 144.345 48.8484 143.271 48.3661C141.578 47.6069 139.725 48.5355 138.857 50.5786C138.218 52.0859 138.197 53.0085 138.695 57.8502C139.008 60.9003 139.19 64.5379 139.099 65.934L138.932 68.4723L138.105 65.2417C135.406 54.7064 129.675 48.6426 118.672 44.6787C108.49 41.0101 106.548 39.5001 106.638 35.3238C106.666 34.0104 106.952 32.3129 107.274 31.5515C107.944 29.9675 107.897 29.9062 109.657 34.6666ZM104.039 44.8199C105.689 47.0633 105.867 49.7368 104.51 51.9267C104.015 52.7265 101.955 54.7442 99.933 56.4107C95.6094 59.9736 93.3339 62.7703 91.3322 66.9816C88.1092 73.7621 89.3004 82.3328 94.2349 87.8659C97.7091 91.761 104.008 92.7593 104.008 89.4147C104.008 88.4266 102.372 88.1973 101.946 89.1249C101.8 89.4424 101.731 89.2864 101.794 88.7788C101.928 87.6919 103.726 87.2816 104.737 88.1077C105.819 88.992 105.536 90.6931 104.125 91.7924C103.065 92.6181 102.438 92.7501 100.592 92.5378C92.5838 91.6161 85.8558 81.9683 86.829 72.8013C87.5087 66.3992 90.5015 61.8159 97.507 56.4476C103.318 51.995 104.656 50.2939 104.323 47.7865C104.193 46.8168 103.523 45.1836 102.833 44.1572C101.248 41.7979 102.201 42.3217 104.039 44.8199ZM143.784 50.4429C143.879 50.934 143.564 51.6369 143.085 52.0047C142.315 52.5963 142.31 52.642 143.034 52.396C143.701 52.1699 143.855 52.3882 143.855 53.565C143.855 55.8827 142.84 60.9704 142.462 60.5495C141.941 59.9694 140.859 50.916 141.205 50.0285C141.615 48.9767 143.56 49.2891 143.784 50.4429ZM118.946 55.088C123.628 56.9987 125.312 58.3071 125.729 60.3599C126.379 63.5604 123.766 67.2534 120.144 68.2517C118.444 68.7201 117.723 68.6994 115.971 68.1317C113.565 67.3522 113.337 67.6042 115.031 69.1706C116.735 70.7466 120.955 71.0028 123.571 69.6893C127.833 67.5483 129.996 63.1442 129.72 57.1653C129.558 53.6523 129.581 53.5604 130.423 54.3113C132.708 56.3466 134.487 61.1209 135.183 67.0878C135.636 70.9626 135.171 70.137 134.049 65.0719C133.524 62.7066 132.57 59.7008 131.928 58.3915L130.762 56.0115L131.097 57.8576C132.054 63.1303 131.027 66.941 127.84 69.9487C124.777 72.8386 119.933 73.7695 116.443 72.1395C114.486 71.2252 113.531 70.0068 113.097 67.8714L112.797 66.396L114.79 67.0878C118.682 68.4395 121.794 67.5137 123.699 64.4382C125.925 60.844 124.341 58.1894 118.706 56.0724C115.408 54.8333 112.58 52.6923 111.446 50.5754C111.136 49.9957 111.714 50.3732 112.776 51.4435C114.1 52.7782 115.92 53.853 118.946 55.088ZM111.179 54.2107C112.219 55.3511 114.506 56.9544 116.682 58.0689C121.816 60.6986 122.592 62.6143 119.319 64.5795C117.524 65.6566 115.823 65.7175 114.426 64.7539C113.124 63.8563 113.094 62.6425 114.347 61.5261C115.163 60.7988 115.457 60.7577 116.268 61.2561C117.651 62.1062 117.904 61.5344 116.535 60.6511C113.356 58.6006 109.714 63.8106 111.047 68.5C113.285 76.366 124.423 78.176 130.268 71.6235C131.069 70.7254 131.856 70.1208 132.017 70.2796C132.179 70.4383 132.311 71.8662 132.311 73.4525C132.311 75.7595 132.04 76.827 130.956 78.7866C129.407 81.5884 127.886 82.5484 124.996 82.5484C122.532 82.5484 120.773 81.4694 120.975 80.0807C121.096 79.2416 121.408 79.0967 122.977 79.1484L124.836 79.2098L123.746 78.3408C122.407 77.2738 120.513 77.2248 119.069 78.2203C118.19 78.8263 118.022 79.2878 118.182 80.6432C118.292 81.564 118.47 82.6217 118.578 82.9933C118.732 83.5217 118.023 83.7465 115.321 84.0247C112.266 84.339 111.715 84.273 110.545 83.4534C108.713 82.169 106.883 78.2517 106.103 73.9449C105.227 69.1046 105.235 60.4037 106.117 57.1653C106.498 55.7692 106.812 54.1239 106.815 53.5097C106.818 52.8949 107.187 51.9927 107.636 51.5049C108.411 50.6621 108.475 50.6589 108.925 51.4384C109.185 51.8898 110.2 53.1372 111.179 54.2107ZM67.6664 55.3082C68.1084 55.7891 69.452 56.6613 70.6516 57.247C72.5839 58.1898 73.5164 58.3121 78.8024 58.3154C85.0495 58.3191 84.996 58.8037 78.6932 59.3081C74.4563 59.6468 70.4707 58.9195 68.1811 57.39L66.5286 56.2861L65.9937 58.2258C65.4204 60.3031 65.6956 65.9335 66.463 67.8225L66.914 68.9338L66.944 67.8336C66.9983 65.8066 68.0742 63.0906 69.3587 61.737C71.5948 59.3801 75.414 60.2362 76.1397 63.2572C76.3708 64.2195 76.1669 64.771 75.2434 65.6802C73.9097 66.9927 73.1592 67.1307 71.9759 66.2801C71.2817 65.7808 71.412 65.7032 72.9412 65.7032C74.6377 65.7032 74.7085 65.6405 74.7085 64.1382C74.7085 62.0398 73.5389 61.288 71.7744 62.2511C68.7394 63.9084 67.8328 70.0248 69.963 74.4719C71.2488 77.1556 72.3153 78.1945 75.9597 80.3119C78.4457 81.7564 87.5739 89.9325 86.7005 89.9325C86.4812 89.9325 84.5371 88.3602 82.3802 86.4384C80.2233 84.5167 76.9826 82.1805 75.1787 81.2464C69.9512 78.5406 66.3814 74.3667 64.1687 68.3735C62.6447 64.2458 62.9316 58.1202 64.8344 54.1655L66.1667 51.3964L66.515 52.9152C66.7063 53.7506 67.2248 54.8273 67.6664 55.3082ZM59.915 57.1159C60.1761 57.5968 60.6032 59.8416 60.8633 62.1044C61.3982 66.7518 62.58 70.5066 64.6389 74.0976C65.4115 75.4457 65.9665 76.5487 65.8719 76.5487C65.5062 76.5487 62.287 71.4518 60.7396 68.4225C59.8461 66.6729 58.6821 63.8193 58.1537 62.0808C57.226 59.0316 57.2232 58.9278 58.0703 59.1461C58.8068 59.3358 58.8654 59.2412 58.4331 58.5604C57.8776 57.6845 58.2133 56.2423 58.9727 56.2423C59.2296 56.2423 59.6539 56.6355 59.915 57.1159ZM101.301 60.52C100.461 63.9795 100.678 65.7023 102.594 70.7798C103.632 73.53 103.714 77.1381 102.806 80.13C102.544 80.9926 102.724 81.2543 103.844 81.6383C104.589 81.8939 105.446 82.4934 105.749 82.9706C106.277 83.8023 106.2 83.8143 103.864 83.2646C91.1686 80.2777 89.3126 71.785 98.8843 60.4752C100.459 58.6149 101.817 57.1621 101.903 57.247C101.989 57.3319 101.719 58.8046 101.301 60.52ZM121.15 82.4902C121.855 83.0362 123.271 83.6149 124.296 83.7764L126.162 84.07L125.046 84.9261C121.856 87.3748 114.349 90.6954 110.28 91.4574C108.839 91.7274 108.818 91.7043 108.865 89.9371C108.982 85.5159 102.857 83.7455 100.864 87.625C100.414 88.5019 100.27 88.5798 100.264 87.9503C100.245 85.6368 104.591 83.7557 107.353 84.8818C108.96 85.5371 110.566 87.7597 110.569 89.3307C110.571 90.3368 110.589 90.3391 113.028 89.6256C117.255 88.3902 124.721 84.3944 122.803 84.3944C121.823 84.3944 119.009 81.5137 119.038 80.5389L119.068 79.5485L119.468 80.5233C119.688 81.0591 120.445 81.9442 121.15 82.4902ZM74.8993 107.621C73.7629 108.211 72.2005 109.579 71.427 110.66C70.1964 112.38 70.0206 113.021 70.0206 115.777C70.0206 118.542 70.195 119.172 71.4467 120.925C73.432 123.707 75.9058 124.99 79.2979 125C88.1927 125.024 92.6026 114.84 86.1732 109.122C83.8072 107.017 82.5771 106.547 79.4395 106.547C77.7542 106.547 76.3071 106.889 74.8993 107.621ZM85.0514 108.875C86.8726 110.551 87.6001 112.23 87.6001 114.759C87.6001 117.563 86.1099 120.489 83.7073 122.404C81.5078 124.156 77.3881 124.637 74.9973 123.42C70.5358 121.149 70.1828 114.079 74.3367 110.181C76.9662 107.714 77.6872 107.43 80.9049 107.594C83.225 107.712 84.0711 107.974 85.0514 108.875ZM90.4129 116.008C90.4129 123.831 90.4813 124.546 91.2332 124.546C91.9838 124.546 92.0536 123.849 92.0536 116.354V108.162L93.3995 108.011C96.3824 107.675 98.3823 108.953 98.3823 111.195C98.3823 112.851 96.9126 114.393 95.3351 114.393C94.6906 114.393 94.1632 114.55 94.1632 114.743C94.1632 114.935 95.3764 116.876 96.8587 119.055C98.341 121.234 99.7703 123.385 100.035 123.835C100.299 124.285 100.889 124.577 101.346 124.484C102.028 124.345 101.582 123.47 98.8449 119.585C96.7209 116.569 95.765 114.854 96.2085 114.854C96.591 114.854 97.553 114.316 98.3462 113.659C100.257 112.076 100.346 109.815 98.5534 108.427C97.5577 107.655 96.6487 107.47 93.8655 107.47H90.4129V116.008ZM103.07 116.008C103.07 123.29 103.174 124.546 103.773 124.546C104.373 124.546 104.476 123.29 104.476 116.008C104.476 108.726 104.373 107.47 103.773 107.47C103.174 107.47 103.07 108.726 103.07 116.008ZM107.758 116.008V124.546H110.165C113.515 124.546 116.05 123.696 117.396 122.122C119.541 119.611 118.491 116.356 115.167 115.215L113.79 114.742L115.215 113.89C115.999 113.421 116.77 112.526 116.929 111.902C117.67 108.995 115.571 107.47 110.829 107.47H107.758V116.008ZM119.946 116.008V124.546H125.103C127.939 124.546 130.26 124.366 130.26 124.146C130.26 123.926 128.818 123.848 127.055 123.972C122.126 124.319 121.822 124.026 121.822 118.936V114.743L124.634 114.944C126.181 115.053 127.447 114.975 127.447 114.768C127.447 114.562 126.181 114.393 124.634 114.393H121.822V111.112V107.83L125.338 108.005C127.271 108.101 128.853 108.021 128.853 107.825C128.853 107.63 126.849 107.47 124.4 107.47H119.946V116.008ZM114.216 108.65C114.943 109.151 115.259 109.84 115.259 110.924C115.259 112.962 113.492 114.393 110.976 114.393H109.164V111.47C109.164 109.862 109.305 108.408 109.477 108.239C110.064 107.661 113.173 107.93 114.216 108.65ZM114.79 115.913C116.53 116.78 117.205 118.482 116.627 120.545C115.988 122.823 114.511 123.713 111.666 123.534L109.399 123.392L109.263 119.354L109.128 115.316L111.373 115.323C112.608 115.326 114.145 115.592 114.79 115.913Z" fill="white"/>
</g>
</g>
</svg>
